<svg xmlns="http://www.w3.org/2000/svg" viewBox="0 0 512 512" role="img" aria-labelledby="title desc">
  <title id="title">Cloud Coach</title>
  <desc id="desc">Original anime-style reward cloud coach character cheering.</desc>
  <defs>
    <linearGradient id="bg" x1="80" y1="52" x2="429" y2="454" gradientUnits="userSpaceOnUse">
      <stop stop-color="#D9FFF4"/>
      <stop offset="1" stop-color="#F7E1FF"/>
    </linearGradient>
    <linearGradient id="cloud" x1="142" y1="156" x2="371" y2="381" gradientUnits="userSpaceOnUse">
      <stop stop-color="#FFFFFF"/>
      <stop offset="1" stop-color="#DDF6FF"/>
    </linearGradient>
  </defs>
  <circle cx="256" cy="256" r="226" fill="url(#bg)"/>
  <path d="M104 371c45 46 96 71 154 75 61 4 111-16 151-58-45 11-93 10-145-3-62-15-115-20-160-14Z" fill="#8FC2FF" opacity=".2"/>
  <path d="M142 302c-39-5-67-31-67-67 0-40 34-69 76-66 16-44 57-72 105-72 55 0 99 37 110 90 43 4 74 34 74 73 0 42-34 73-80 73H151c-3 0-6 0-9-1Z" fill="url(#cloud)" stroke="#24575A" stroke-width="12" stroke-linejoin="round"/>
  <path d="M155 194c17-23 41-37 72-42 31-5 58 2 81 21" fill="none" stroke="#9FD9EF" stroke-width="12" stroke-linecap="round"/>
  <circle cx="220" cy="255" r="15" fill="#24575A"/>
  <circle cx="292" cy="255" r="15" fill="#24575A"/>
  <circle cx="215" cy="249" r="5" fill="#fff"/>
  <circle cx="287" cy="249" r="5" fill="#fff"/>
  <path d="M236 305c13 14 33 14 47 0" fill="none" stroke="#24575A" stroke-width="9" stroke-linecap="round"/>
  <path d="M155 288c-34 8-60 29-78 61" fill="none" stroke="#24575A" stroke-width="12" stroke-linecap="round"/>
  <path d="M363 288c34 8 60 29 78 61" fill="none" stroke="#24575A" stroke-width="12" stroke-linecap="round"/>
  <path d="m82 348 29-42 28 42-28 45-29-45Z" fill="#FFD866" stroke="#24575A" stroke-width="9" stroke-linejoin="round"/>
  <path d="m430 348-29-42-28 42 28 45 29-45Z" fill="#FFD866" stroke="#24575A" stroke-width="9" stroke-linejoin="round"/>
  <path d="M190 363c0-29 29-52 66-52s66 23 66 52v38H190v-38Z" fill="#8DDCCB" stroke="#24575A" stroke-width="10"/>
  <circle cx="209" cy="285" r="12" fill="#FFB3C5" opacity=".75"/>
  <circle cx="306" cy="285" r="12" fill="#FFB3C5" opacity=".75"/>
</svg>
