<svg xmlns="http://www.w3.org/2000/svg" viewBox="0 0 512 512" role="img" aria-labelledby="title desc">
  <title id="title">Firework Pencil</title>
  <desc id="desc">Original anime-style reward pencil character with fireworks.</desc>
  <defs>
    <linearGradient id="bg" x1="76" y1="43" x2="429" y2="458" gradientUnits="userSpaceOnUse">
      <stop stop-color="#FFF5D7"/>
      <stop offset="1" stop-color="#D9E4FF"/>
    </linearGradient>
    <linearGradient id="pencil" x1="177" y1="94" x2="331" y2="425" gradientUnits="userSpaceOnUse">
      <stop stop-color="#FFD85E"/>
      <stop offset=".6" stop-color="#FF9E5E"/>
      <stop offset="1" stop-color="#F27AA3"/>
    </linearGradient>
  </defs>
  <circle cx="256" cy="256" r="226" fill="url(#bg)"/>
  <path d="M91 170h48M115 146v48M388 123h52M414 97v52M86 311h43M108 290v42" stroke="#7AB7D9" stroke-width="10" stroke-linecap="round"/>
  <path d="m180 101 78-47 78 47v271c0 50-35 87-78 87s-78-37-78-87V101Z" fill="url(#pencil)" stroke="#24575A" stroke-width="12" stroke-linejoin="round"/>
  <path d="m180 101 78 47 78-47-78-47-78 47Z" fill="#FFE8B3" stroke="#24575A" stroke-width="12" stroke-linejoin="round"/>
  <path d="M225 73 258 54l33 19-33 18-33-18Z" fill="#3B5663"/>
  <path d="M180 157h156" stroke="#24575A" stroke-width="9" opacity=".35"/>
  <circle cx="228" cy="260" r="15" fill="#24575A"/>
  <circle cx="290" cy="260" r="15" fill="#24575A"/>
  <circle cx="223" cy="254" r="5" fill="#fff"/>
  <circle cx="285" cy="254" r="5" fill="#fff"/>
  <path d="M239 311c12 12 29 12 42 0" fill="none" stroke="#24575A" stroke-width="9" stroke-linecap="round"/>
  <path d="M176 295c-33 8-57 27-73 56" fill="none" stroke="#24575A" stroke-width="12" stroke-linecap="round"/>
  <path d="M340 294c32 8 56 27 73 56" fill="none" stroke="#24575A" stroke-width="12" stroke-linecap="round"/>
  <path d="M108 352c8-17 21-28 40-33 5 19 0 35-15 50" fill="#9FE5D7" stroke="#24575A" stroke-width="9" stroke-linejoin="round"/>
  <path d="M408 352c-8-17-21-28-40-33-5 19 0 35 15 50" fill="#9FE5D7" stroke="#24575A" stroke-width="9" stroke-linejoin="round"/>
  <path d="M401 204 423 170l22 34 39 11-26 31 2 40-37-15-37 15 2-40-26-31 39-11Z" fill="#FF7FA8" stroke="#24575A" stroke-width="9" stroke-linejoin="round"/>
  <circle cx="217" cy="288" r="12" fill="#FFB3C5" opacity=".75"/>
  <circle cx="301" cy="288" r="12" fill="#FFB3C5" opacity=".75"/>
</svg>
